{
	"asset":{
		"version":"2.0",
		"generator":"Houdini GLTF 2.0 Exporter"
	},
	"accessors":[
		{
			"bufferView":0,
			"componentType":5125,
			"count":92274,
			"type":"SCALAR",
			"min":[0
			],
			"max":[26758
			]
		},
		{
			"bufferView":1,
			"componentType":5126,
			"count":26759,
			"type":"VEC3",
			"min":[-1,-0.5,-0.5
			],
			"max":[0,0.5,0.5
			]
		},
		{
			"bufferView":2,
			"componentType":5126,
			"count":26759,
			"type":"VEC4",
			"min":[-1,-0.297194839,-1,1
			],
			"max":[1,0.302630484,1,1
			]
		},
		{
			"bufferView":3,
			"componentType":5126,
			"count":26759,
			"type":"VEC2",
			"min":[0,0.0196141601
			],
			"max":[0.980076849,1
			]
		},
		{
			"bufferView":4,
			"componentType":5126,
			"count":26759,
			"type":"VEC3",
			"min":[-1,-1,-1
			],
			"max":[1,1,1
			]
		}
	],
	"buffers":[
		{
			"uri":"sm_lensA_data.bin",
			"byteLength":1653528,
			"name":"main_buffer"
		}
	],
	"bufferViews":[
		{
			"buffer":0,
			"byteLength":369096,
			"target":34963
		},
		{
			"buffer":0,
			"byteOffset":369096,
			"byteLength":321108,
			"target":34962
		},
		{
			"buffer":0,
			"byteOffset":690204,
			"byteLength":428144,
			"target":34962
		},
		{
			"buffer":0,
			"byteOffset":1118348,
			"byteLength":214072,
			"target":34962
		},
		{
			"buffer":0,
			"byteOffset":1332420,
			"byteLength":321108,
			"target":34962
		}
	],
	"nodes":[
		{
			"name":"lens",
			"mesh":0
		}
	],
	"meshes":[
		{
			"primitives":[
				{
					"attributes":{
						"POSITION":1,
						"TANGENT":2,
						"NORMAL":4,
						"TEXCOORD_0":3
					},
					"indices":0
				}
			],
			"name":"normal2"
		}
	],
	"scenes":[
		{
			"nodes":[0
			]
		}
	],
	"scene":0
}
